<?xml version="1.0" encoding="UTF-8" standalone="no"?>
<!-- Created with Inkscape (http://www.inkscape.org/) -->

<svg
   xmlns:dc="http://purl.org/dc/elements/1.1/"
   xmlns:cc="http://creativecommons.org/ns#"
   xmlns:rdf="http://www.w3.org/1999/02/22-rdf-syntax-ns#"
   xmlns:svg="http://www.w3.org/2000/svg"
   xmlns="http://www.w3.org/2000/svg"
   xmlns:xlink="http://www.w3.org/1999/xlink"
   xmlns:sodipodi="http://sodipodi.sourceforge.net/DTD/sodipodi-0.dtd"
   xmlns:inkscape="http://www.inkscape.org/namespaces/inkscape"
   width="600"
   height="200"
   viewBox="0 0 158.75 52.916668"
   version="1.1"
   id="svg8"
   inkscape:version="0.92.4 5da689c313, 2019-01-14"
   sodipodi:docname="logo-caebes-texto.svg">
  <defs
     id="defs2">
    <linearGradient
       id="linearGradient4662-3"
       inkscape:collect="always">
      <stop
         id="stop4658"
         offset="0"
         style="stop-color:#0a2328;stop-opacity:1" />
      <stop
         style="stop-color:#2e595f;stop-opacity:1"
         offset="0.63937533"
         id="stop4699" />
      <stop
         id="stop4660"
         offset="1"
         style="stop-color:#2a4c52;stop-opacity:1" />
    </linearGradient>
    <linearGradient
       inkscape:collect="always"
       id="linearGradient4680">
      <stop
         style="stop-color:#06232b;stop-opacity:1"
         offset="0"
         id="stop4676" />
      <stop
         id="stop4682"
         offset="0.61657339"
         style="stop-color:#2b4c55;stop-opacity:1" />
      <stop
         style="stop-color:#2b4a53;stop-opacity:1"
         offset="1"
         id="stop4678" />
    </linearGradient>
    <linearGradient
       inkscape:collect="always"
       id="linearGradient4693">
      <stop
         style="stop-color:#0a272f;stop-opacity:1"
         offset="0"
         id="stop4689" />
      <stop
         id="stop4695"
         offset="0.50455946"
         style="stop-color:#325b61;stop-opacity:1" />
      <stop
         style="stop-color:#2d5c62;stop-opacity:1"
         offset="1"
         id="stop4691" />
    </linearGradient>
    <clipPath
       id="clipPath4531"
       clipPathUnits="userSpaceOnUse">
      <rect
         y="107.55833"
         x="-11.1125"
         height="89.745415"
         width="41.107567"
         id="rect4533"
         style="opacity:1;fill:#ffc400;fill-opacity:1;stroke:none;stroke-width:0.02645833;stroke-miterlimit:4;stroke-dasharray:none;stroke-opacity:1" />
    </clipPath>
    <linearGradient
       id="linearGradient4705"
       inkscape:collect="always">
      <stop
         id="stop4701"
         offset="0"
         style="stop-color:#90c83f;stop-opacity:1" />
      <stop
         style="stop-color:#7ea942;stop-opacity:1;"
         offset="0.77987182"
         id="stop4709" />
      <stop
         id="stop4703"
         offset="1"
         style="stop-color:#6f8e46;stop-opacity:1" />
    </linearGradient>
    <linearGradient
       id="linearGradient4670"
       inkscape:collect="always">
      <stop
         id="stop4666"
         offset="0"
         style="stop-color:#143537;stop-opacity:1" />
      <stop
         style="stop-color:#1f3e46;stop-opacity:1"
         offset="0.4438538"
         id="stop4697" />
      <stop
         id="stop4668"
         offset="1"
         style="stop-color:#254249;stop-opacity:1" />
    </linearGradient>
    <linearGradient
       inkscape:collect="always"
       xlink:href="#linearGradient4670"
       id="linearGradient2077"
       gradientUnits="userSpaceOnUse"
       gradientTransform="matrix(1.9667878,0,0,1.9667878,474.41804,-153.44527)"
       x1="-154.44359"
       y1="173.12169"
       x2="-135.81429"
       y2="137.92526" />
    <radialGradient
       inkscape:collect="always"
       xlink:href="#linearGradient4705"
       id="radialGradient2079"
       gradientUnits="userSpaceOnUse"
       gradientTransform="matrix(1.9667878,0,0,1.9667878,474.41804,-153.44527)"
       cx="-166.51808"
       cy="146.19316"
       fx="-166.51808"
       fy="146.19316"
       r="11.826674" />
    <linearGradient
       inkscape:collect="always"
       xlink:href="#linearGradient4693"
       id="linearGradient2081"
       gradientUnits="userSpaceOnUse"
       x1="7.6135955"
       y1="138.71901"
       x2="27.613817"
       y2="192.42943" />
    <linearGradient
       inkscape:collect="always"
       xlink:href="#linearGradient4680"
       id="linearGradient2083"
       gradientUnits="userSpaceOnUse"
       gradientTransform="matrix(1.9667878,0,0,1.9667878,474.41804,-153.44527)"
       x1="-168.25941"
       y1="114.52247"
       x2="-201.94438"
       y2="150.5058" />
    <linearGradient
       inkscape:collect="always"
       xlink:href="#linearGradient4662-3"
       id="linearGradient2085"
       gradientUnits="userSpaceOnUse"
       gradientTransform="matrix(1.9667878,0,0,1.9667878,474.41804,-153.44527)"
       x1="-154.73277"
       y1="153.70644"
       x2="-155.28391"
       y2="111.50539" />
  </defs>
  <sodipodi:namedview
     id="base"
     pagecolor="#ffffff"
     bordercolor="#666666"
     borderopacity="1.0"
     inkscape:pageopacity="0.0"
     inkscape:pageshadow="2"
     inkscape:zoom="0.3701494"
     inkscape:cx="406.10268"
     inkscape:cy="164.06742"
     inkscape:document-units="mm"
     inkscape:current-layer="layer1"
     showgrid="false"
     inkscape:window-width="939"
     inkscape:window-height="1020"
     inkscape:window-x="965"
     inkscape:window-y="44"
     inkscape:window-maximized="0"
     units="px" />
  <metadata
     id="metadata5">
    <rdf:RDF>
      <cc:Work
         rdf:about="">
        <dc:format>image/svg+xml</dc:format>
        <dc:type
           rdf:resource="http://purl.org/dc/dcmitype/StillImage" />
        <dc:title />
      </cc:Work>
    </rdf:RDF>
  </metadata>
  <g
     inkscape:label="Capa 1"
     inkscape:groupmode="layer"
     id="layer1"
     transform="translate(0,-244.08332)">
    <g
       inkscape:export-ydpi="93.800003"
       inkscape:export-xdpi="93.800003"
       inkscape:label="Capa 1"
       id="g2071"
       transform="matrix(0.26708071,0,0,0.26708071,13.471657,211.66471)">
      <g
         id="g2069"
         transform="matrix(0.98537207,0,0,0.98537207,-82.259708,66.108759)">
        <circle
           style="opacity:1;fill:#ffffff;fill-opacity:1;stroke:none;stroke-width:0.45692652;stroke-opacity:1"
           id="circle2055"
           cx="146.91231"
           cy="134.08568"
           r="35.771328" />
        <circle
           style="opacity:1;fill:#000000;fill-opacity:0;stroke:none;stroke-width:0.42469656;stroke-opacity:1"
           id="circle2057"
           cx="146.91231"
           cy="134.08568"
           r="33.248142" />
        <path
           style="fill:url(#linearGradient2077);fill-opacity:1;stroke-width:0.52585691"
           d="m 148.61079,70.548577 c -11.89108,-0.137479 -21.34775,2.541562 -30.03362,6.88893 -8.78983,4.399409 -20.226609,14.779603 -25.303439,22.965783 -11.850329,19.10817 -12.83744,42.14262 -2.675067,62.4201 5.464759,10.90413 24.693886,35.7483 51.771646,66.8911 2.18886,2.51747 4.10415,4.58732 4.25652,4.60109 0.81036,0.0704 10.96022,-11.19458 20.82635,-23.11418 20.65216,-24.95055 34.22514,-46.46896 39.9696,-63.36532 1.8414,-5.41624 1.98134,-6.27179 2.1852,-13.44144 0.31095,-10.93652 -1.49272,-18.97262 -6.48442,-28.89021 -9.50333,-18.881258 -28.55292,-33.136732 -49.26224,-34.721078 -1.80295,-0.137872 -3.55182,-0.215147 -5.25053,-0.234775 z m -1.69836,31.340643 a 32.196819,32.196819 0 0 1 32.19643,32.19644 32.196819,32.196819 0 0 1 -32.19643,32.19643 32.196819,32.196819 0 0 1 -32.19745,-32.19643 32.196819,32.196819 0 0 1 32.19745,-32.19644 z"
           id="path2059"
           inkscape:connector-curvature="0" />
        <circle
           r="23.260559"
           cy="134.08568"
           cx="146.91231"
           id="circle2061"
           style="opacity:1;fill:url(#radialGradient2079);fill-opacity:1;stroke:none;stroke-width:0.29711974;stroke-opacity:1" />
        <path
           transform="matrix(1.9667878,0,0,1.9667878,87.643868,-153.44527)"
           inkscape:connector-curvature="0"
           id="path2063"
           d="m 30.998229,113.88814 c -6.045948,-0.0699 -10.854123,1.29224 -15.27039,3.50263 -4.469137,2.23685 -10.284082,7.51459 -12.865364,11.6768 -6.02522,9.71542 -6.52711,21.42713 -1.360124,31.73708 2.778526,5.54413 12.555443,18.17598 26.32294,34.01033 1.112911,1.27999 2.086738,2.33239 2.164208,2.33939 0.41202,0.0358 5.57265,-5.69181 10.58902,-11.75225 10.50045,-12.68594 17.40154,-23.62683 20.32227,-32.21767 0.93625,-2.75385 1.0074,-3.18885 1.11105,-6.83421 0.1581,-5.5606 -0.75896,-9.6465 -3.29696,-14.68903 -4.8319,-9.60005 -14.51754,-16.84815 -25.04705,-17.6537 -0.9167,-0.0701 -1.8059,-0.10939 -2.6696,-0.11937 z m -0.86352,15.93494 a 16.370256,16.370256 0 0 1 16.37006,16.37006 16.370256,16.370256 0 0 1 -16.37006,16.37006 16.370256,16.370256 0 0 1 -16.370575,-16.37006 16.370256,16.370256 0 0 1 16.370575,-16.37006 z"
           style="fill:url(#linearGradient2081);fill-opacity:1;stroke-width:0.26736841"
           clip-path="url(#clipPath4531)" />
        <path
           id="path2065"
           d="m 146.7069,70.532311 c -15.67888,0.09028 -31.22265,6.317913 -42.50339,17.242652 -8.326617,7.362493 -14.634047,16.959867 -17.819948,27.626837 -4.352855,13.9511 -3.417962,29.30321 2.086585,42.78595 0.114664,0.24589 0.228088,0.49526 0.344561,0.73484 11.276222,-47.17597 33.584502,-57.63391 57.892192,-57.89219 z"
           clip-path="none"
           style="fill:url(#linearGradient2083);fill-opacity:1;stroke-width:0.52585691"
           inkscape:connector-curvature="0" />
        <path
           id="path2067"
           d="m 148.61055,70.548577 c -0.64265,-0.0079 -1.27495,-0.002 -1.90365,0.0059 v 30.475733 c 2.10322,0.31272 4.06928,0.79049 5.91627,1.3975 a 32.196819,32.196819 0 0 1 26.48547,31.65775 32.196819,32.196819 0 0 1 -23.66303,31.04083 c -0.73811,0.24376 -1.49973,0.44567 -2.27768,0.61592 52.1235,-6.13845 52.50016,-55.66283 51.54601,-56.88193 5.1e-4,-0.002 0.002,-0.004 0.002,-0.006 -0.49123,-1.09764 -1.0188,-2.21082 -1.59265,-3.35095 -9.50352,-18.881261 -28.55312,-33.136735 -49.26243,-34.721081 -1.80295,-0.137872 -3.55184,-0.215147 -5.25055,-0.234775 z m 4.55738,95.193823 c -0.59837,0.0704 -1.20107,0.13728 -1.81318,0.19609 a 32.196819,32.196819 0 0 1 -4.35818,0.34049 c 2.17652,0.0785 4.23429,-0.1127 6.17136,-0.53664 z m -6.46813,0.52952 c -0.008,3.9e-4 -0.0177,5.1e-4 -0.0254,0.001 0.0299,0.002 0.0586,5.1e-4 0.0885,0.002 a 32.196819,32.196819 0 0 1 -0.0629,-0.004 z"
           clip-path="none"
           style="fill:url(#linearGradient2085);fill-opacity:1;stroke-width:0.52585691"
           inkscape:connector-curvature="0" />
      </g>
    </g>
    <g
       aria-label="CAEBES"
       style="font-style:normal;font-variant:normal;font-weight:normal;font-stretch:normal;font-size:27.9822197px;line-height:20.40370178px;font-family:Dosis;-inkscape-font-specification:Dosis;letter-spacing:0px;word-spacing:0px;fill:#8ec43f;fill-opacity:1;stroke:none;stroke-width:0.58296287px;stroke-linecap:butt;stroke-linejoin:miter;stroke-opacity:1"
       id="text2075">
      <path
         d="m 57.582344,273.5625 v -8.14282 q 0,-3.21796 1.706915,-4.729 1.734898,-1.51104 4.505137,-1.51104 2.854187,0 4.589084,1.42709 1.76288,1.39912 1.76288,3.63769 0,0.89543 -0.335786,1.23122 -0.335787,0.3078 -1.147271,0.3078 -1.455076,0 -1.483058,-0.97937 -0.167893,-2.9941 -3.27392,-2.9941 -3.357866,0 -3.357866,3.60971 v 8.14282 q 0,3.60971 3.413831,3.60971 1.00736,0 1.678933,-0.27982 0.671573,-0.30781 0.951395,-0.86745 0.307805,-0.55965 0.419734,-0.97938 0.111929,-0.41973 0.167893,-1.03534 0.08395,-0.97938 1.455075,-0.97938 0.811485,0 1.147271,0.33579 0.363769,0.3078 0.363769,1.20323 0,2.32253 -1.76288,3.7776 -1.762879,1.45508 -4.617066,1.45508 -2.77024,0 -4.477155,-1.51104 -1.706915,-1.51104 -1.706915,-4.729 z"
         style="font-style:normal;font-variant:normal;font-weight:600;font-stretch:normal;font-family:Dosis;-inkscape-font-specification:'Dosis Semi-Bold';fill:#8ec43f;fill-opacity:1;stroke-width:0.58296287px"
         id="path858" />
      <path
         d="m 71.461962,278.40343 q 0,-0.1679 0.02798,-0.25184 l 5.568461,-18.13248 q 0.335787,-1.00736 1.874809,-1.00736 1.567004,0 1.902791,1.00736 l 5.54048,18.13248 q 0.05596,0.16789 0.05596,0.25184 0,0.50368 -0.615609,0.86744 -0.587626,0.36377 -1.2592,0.36377 -0.811484,0 -1.00736,-0.61561 l -1.147271,-3.97347 h -6.911608 l -1.147271,3.97347 q -0.195875,0.61561 -1.035342,0.61561 -0.671573,0 -1.2592,-0.36377 -0.587626,-0.36376 -0.587626,-0.86744 z m 4.67303,-5.73636 h 5.596444 l -2.798222,-9.5979 z"
         style="font-style:normal;font-variant:normal;font-weight:600;font-stretch:normal;font-family:Dosis;-inkscape-font-specification:'Dosis Semi-Bold';fill:#8ec43f;fill-opacity:1;stroke-width:0.58296287px"
         id="path860" />
      <path
         d="m 88.657036,278.65527 v -18.49625 q 0,-0.44772 0.391751,-0.69956 0.391751,-0.27982 0.923413,-0.27982 h 9.96167 q 0.4757,0 0.72754,0.39175 0.25184,0.39175 0.25184,0.89543 0,0.55965 -0.27982,0.9514 -0.25184,0.39175 -0.69956,0.39175 h -8.310719 v 6.40793 h 4.309262 q 0.447715,0 0.699555,0.36377 0.279823,0.33578 0.279823,0.83946 0,0.44772 -0.25184,0.81149 -0.25184,0.33578 -0.727538,0.33578 h -4.309262 v 6.43591 h 8.310719 q 0.44772,0 0.69956,0.39176 0.27982,0.39175 0.27982,0.95139 0,0.50368 -0.25184,0.89543 -0.25184,0.39175 -0.72754,0.39175 H 89.9722 q -0.531662,0 -0.923413,-0.25184 -0.391751,-0.27982 -0.391751,-0.72753 z"
         style="font-style:normal;font-variant:normal;font-weight:600;font-stretch:normal;font-family:Dosis;-inkscape-font-specification:'Dosis Semi-Bold';fill:#8ec43f;fill-opacity:1;stroke-width:0.58296287px"
         id="path862" />
      <path
         d="m 103.30398,278.68325 v -18.52423 q 0,-0.44772 0.39175,-0.69956 0.39175,-0.27982 0.92341,-0.27982 h 5.09277 q 2.57436,0 4.11338,1.06333 1.53903,1.06332 1.53903,3.77759 0,3.4698 -2.37849,4.53312 1.42709,0.55965 2.15463,1.62297 0.72754,1.03535 0.72754,3.05007 v 0.53166 q 0,3.07804 -1.51104,4.47715 -1.51104,1.39911 -4.05743,1.39911 h -5.68039 q -0.58762,0 -0.95139,-0.27982 -0.36377,-0.27982 -0.36377,-0.67157 z m 2.93813,-1.67894 h 3.49778 q 3.16199,0 3.16199,-3.46979 v -0.44772 q 0,-1.79086 -0.81148,-2.57436 -0.78351,-0.7835 -2.35051,-0.7835 h -3.49778 z m 0,-9.62588 h 3.32989 q 2.8262,0 2.8262,-2.88217 0,-2.68629 -2.88217,-2.68629 h -3.27392 z"
         style="font-style:normal;font-variant:normal;font-weight:600;font-stretch:normal;font-family:Dosis;-inkscape-font-specification:'Dosis Semi-Bold';fill:#8ec43f;fill-opacity:1;stroke-width:0.58296287px"
         id="path864" />
      <path
         d="m 118.77071,278.65527 v -18.49625 q 0,-0.44772 0.39175,-0.69956 0.39175,-0.27982 0.92342,-0.27982 h 9.96167 q 0.47569,0 0.72753,0.39175 0.25184,0.39175 0.25184,0.89543 0,0.55965 -0.27982,0.9514 -0.25184,0.39175 -0.69955,0.39175 h -8.31072 v 6.40793 h 4.30926 q 0.44771,0 0.69955,0.36377 0.27983,0.33578 0.27983,0.83946 0,0.44772 -0.25184,0.81149 -0.25184,0.33578 -0.72754,0.33578 h -4.30926 v 6.43591 h 8.31072 q 0.44771,0 0.69955,0.39176 0.27982,0.39175 0.27982,0.95139 0,0.50368 -0.25184,0.89543 -0.25184,0.39175 -0.72753,0.39175 h -9.96167 q -0.53167,0 -0.92342,-0.25184 -0.39175,-0.27982 -0.39175,-0.72753 z"
         style="font-style:normal;font-variant:normal;font-weight:600;font-stretch:normal;font-family:Dosis;-inkscape-font-specification:'Dosis Semi-Bold';fill:#8ec43f;fill-opacity:1;stroke-width:0.58296287px"
         id="path866" />
      <path
         d="m 132.38231,276.5566 q 0,-0.53166 0.39175,-1.06332 0.39175,-0.53167 0.89543,-0.53167 0.30781,0 0.72754,0.36377 0.44772,0.33579 0.86745,0.75552 0.41973,0.39175 1.2592,0.75552 0.86745,0.33579 1.93077,0.33579 1.59499,0 2.54639,-0.75552 0.97937,-0.75552 0.97937,-2.2106 0,-1.34314 -0.95139,-2.23857 -0.92342,-0.89544 -2.26656,-1.4271 -1.31517,-0.53166 -2.65831,-1.14727 -1.34315,-0.61561 -2.29454,-1.84683 -0.92342,-1.23121 -0.92342,-3.07804 0,-1.48306 0.55965,-2.57436 0.58762,-1.09131 1.567,-1.67894 0.97938,-0.58762 2.0427,-0.83946 1.09131,-0.27983 2.29454,-0.27983 0.75552,0 1.56701,0.11193 0.83947,0.0839 1.65095,0.30781 0.81148,0.22386 1.34315,0.64359 0.53166,0.41973 0.53166,0.95139 0,0.53167 -0.33579,1.06333 -0.33578,0.53166 -0.89543,0.53166 -0.27982,0 -0.75552,-0.25184 -0.4757,-0.27982 -1.28718,-0.53166 -0.7835,-0.27982 -1.81885,-0.27982 -1.59498,0 -2.54638,0.64359 -0.95139,0.61561 -0.95139,1.90279 0,0.83946 0.50368,1.45507 0.50368,0.58763 1.28718,0.97938 0.81148,0.39175 1.79086,0.7835 0.97938,0.36377 1.93077,0.86745 0.97938,0.50368 1.76288,1.17526 0.81149,0.64359 1.31517,1.79086 0.50368,1.14727 0.50368,2.65831 0,2.91015 -1.76288,4.44917 -1.7349,1.51104 -4.61707,1.51104 -2.57436,0 -4.39321,-1.06332 -1.79086,-1.09131 -1.79086,-2.23858 z"
         style="font-style:normal;font-variant:normal;font-weight:600;font-stretch:normal;font-family:Dosis;-inkscape-font-specification:'Dosis Semi-Bold';fill:#8ec43f;fill-opacity:1;stroke-width:0.58296287px"
         id="path868" />
    </g>
  </g>
</svg>
